<svg xmlns="http://www.w3.org/2000/svg" xmlns:xlink="http://www.w3.org/1999/xlink" width="1889.764" height="1889.764" viewBox="0 0 1771.654 1771.654" xmlns:v="https://vecta.io/nano"><style><![CDATA[.B{opacity:.4}.C{fill:#fff}.D{stroke-width:8.628}.E{fill:violet}.F{fill:url(#I)}.G{fill:#cd82ed}.H{fill:#ff8a00}.I{fill:url(#K)}]]></style><defs><radialGradient id="A" cx="370.96" cy="806.98" r="324.56" gradientTransform="matrix(1 0 0 .40039 0 483.87)" xlink:href="#Y"><stop stop-color="#556b2f" offset="0"/><stop stop-color="#556b2f" stop-opacity="0" offset="1"/></radialGradient><linearGradient id="B" x1="484.88" x2="465.12" y1="601.61" y2="720.13" xlink:href="#Y"><stop stop-color="sienna" offset="0"/><stop stop-color="sienna" stop-opacity="0" offset="1"/></linearGradient><linearGradient id="C" x1="289.13" x2="290.93" y1="450.75" y2="614.18" xlink:href="#Y"><stop stop-color="#8b4513" offset="0"/><stop stop-color="#8b4513" stop-opacity="0" offset="1"/></linearGradient><linearGradient id="D" x1="-835.03" x2="-852.8" y1="578.15" y2="514.65" xlink:href="#Y"><stop stop-color="#b8860b" offset="0"/><stop stop-color="#b8860b" stop-opacity="0" offset="1"/></linearGradient><linearGradient id="E" x1="-799.47" x2="-805.82" y1="477.19" y2="448.62" xlink:href="#Y"><stop stop-color="maroon" offset="0"/><stop stop-color="maroon" stop-opacity="0" offset="1"/></linearGradient><linearGradient id="F" x1="589.57" x2="587.62" y1="516.92" y2="456.43" xlink:href="#Y"><stop stop-color="maroon" offset="0"/><stop stop-color="maroon" stop-opacity="0" offset="1"/></linearGradient><linearGradient id="G" x1="292.07" x2="299.05" y1="796.49" y2="724.1" xlink:href="#Y"><stop stop-color="sienna" offset="0"/><stop stop-color="sienna" stop-opacity="0" offset="1"/></linearGradient><linearGradient id="H" x1="417.78" x2="441.27" y1="828.87" y2="748.23" xlink:href="#Y"><stop stop-color="#8b4513" offset="0"/><stop stop-color="#8b4513" stop-opacity="0" offset="1"/></linearGradient><linearGradient id="I" x1="-219.18" x2="-219.44" y1="410.41" y2="385.75" xlink:href="#Y"><stop stop-color="orange" offset="0"/><stop stop-color="orange" stop-opacity="0" offset="1"/></linearGradient><radialGradient id="J" cx="351.17" cy="395.31" r="349.21" gradientTransform="matrix(1 0 0 .78885 0 83.469)" xlink:href="#Y"><stop stop-color="teal" offset="0"/><stop stop-color="teal" stop-opacity="0" offset="1"/></radialGradient><linearGradient id="K" x1="-219.18" x2="-219.44" y1="410.41" y2="385.75" xlink:href="#Y"><stop stop-color="#ff5800" offset="0"/><stop stop-color="#ff5800" stop-opacity="0" offset="1"/></linearGradient><filter id="L" x="-.083" y="-.217" width="1.166" height="1.435" color-interpolation-filters="sRGB"><feGaussianBlur stdDeviation="8.202"/></filter><path id="M" d="M483.6 582.46c-17.37.015-32.833 7.376-38.584 18.365-6.064 8.383-4.985 21.35-8.5 31.502-5.54 15.958-10.938 31.977-17.725 47.61-5.945 13.696-12.992 27.062-20.105 40.38-5.618 10.518-12.842 20.468-17.818 31.2-4.468 9.636-10.58 19.34-10.734 29.642-.135 8.98 4.053 17.83 8.578 26.018 3.657 6.616 7.906 13.496 14.723 18.156 8.138 5.563 18.864 8.448 29.23 10.32 10.838 1.958 22.44 2.66 33.29.746 10.1-1.783 19.622-6.002 27.87-11.084 7.334-4.52 17.748-14.13 18.402-16.754s9.563-18.225 9.563-18.225 1.677-16.8 2.494-20.08-.247-16.893-.38-25.34c-.247-15.755-1.162-31.512-.773-47.266.3-12.18.898-24.37 2.4-36.5 1.57-12.672 5.122-25.14 6.908-37.793.773-5.48 4.404-11.73 1.813-16.53-2.33-13.873-19.818-24.364-40.64-24.38z"/><path id="N" d="M341.43 441s-16.593-5.882-25.254-7.07c-8.006-1.1-16.178-.502-24.244 0-8.128.506-16.427.745-24.244 3.03-7.517 2.197-16.846 3.6-21.213 10.102-9.966 14.838-1.684 35.714-3.03 53.538-1.886 24.957-3.583 49.967-7.07 74.75-3.056 21.71-7.542 43.208-12.122 64.65-3.617 16.932-9.344 33.418-12.122 50.508-2.494 15.346-6.953 31.195-4.04 46.467 2.54 13.313 10.258 25.37 18.183 36.366 6.404 8.885 13.603 18.017 23.234 23.234 11.497 6.228 25.312 7.857 38.386 8.08 13.67.234 27.886-1.575 40.406-7.07 11.655-5.116 21.878-13.693 30.305-23.234 7.493-8.484 17.173-25.254 17.173-29.294s6.06-29.294 6.06-29.294-3.03-25.254-3.03-30.305-5.38-24.92-8.08-37.376c-5.038-23.236-10.882-46.31-15.152-69.7-3.3-18.082-6.25-36.26-8.08-54.548-1.916-19.124-1.38-38.43-3.03-57.58-.728-8.447-3.03-25.254-3.03-25.254z"/><path id="O" d="M-142.22 441.56c.68-36.04-164.48 75.223-124.45 95.24 39.582 19.79 128.58-62.163 124.45-95.24z"/><path id="P" d="M-139.52 439.55c-20.41-29.71-90.023 156.87-45.818 149.86 43.71-6.93 68.422-125.36 45.818-149.86z"/><path id="Q" d="M-138.5 436.3c-33.94-12.138 18.845 179.88 50.582 148.32 31.38-31.205-17.914-141.7-50.582-148.32z"/><path id="R" d="M-139.07 433.9c-35.818 4.04 96.1 153.22 110.7 110.9 14.442-41.832-78.454-119.34-110.7-110.9z"/><path id="S" d="M-140.7 431.94c-30.256 19.592 154.35 94.28 148.55 49.898-5.73-43.882-123.44-71.824-148.55-49.898z"/><path id="T" d="M-160.1 466.43c-9.46 8.35-49.645 103.83-32.616 112.35 16.425 8.212 36.846-96.838 32.616-112.35z"/><path id="U" d="M-185.48 454.66c-10.046 1.808-99.612 61.634-79.73 71.575 14.118 7.06 107.58-66.512 79.73-71.575z"/><path id="V" d="M-137.46 469.15c-13.52 12.65 31.336 132.12 43.49 107.82 8.517-17.034-29.564-98.42-40.77-109.63"/><path id="W" d="M-113 461.9c106.27 175.1 68.812 12.51 0 0z"/><path id="X" d="M-84.91 430.2c127.15 32.082 91.676 91.676 0 0z"/><linearGradient id="Y" gradientUnits="userSpaceOnUse"/></defs><g transform="matrix(1.117957 0 0 1.117957 94.601088 381.540674)"><path d="M921.08-224.582c-33.294 142.644-347.93-82.034-444.8 30.676-34.87 40.572 127.754 137.03 13.147 159.952-63.2 12.64-237.86-33.594-267.314 54.778C199.734 87.96 372.826 101.8 331.67 156.675 278.662 227.35 44.4 153.246 77.503 318.818c26.202 131.007 178.572 65.717 227.87 164.335 33.526 67.053-119.02 134.853-54.778 186.25C372.853 767.2 479.62 572.66 585.842 562.038c97.156-9.716 515.666 214.583 543.394 48.205 11.25-67.495-104.703-138.747-74.498-184.06 60.953-91.43 241.018-6.66 223.504-164.335C1257.888 78.67 935.42 210.83 912.315 95.323c-7.232-36.16 30.452-68.313 59.16-81.073 93.6-41.604 282.36-40.018 284.846-146.806 1.294-55.61-91.222-67.67-144.614-83.262-61.06-17.835-176.174-70.71-190.633-8.765z" fill="#87ceeb"/><path transform="matrix(1.7255 0 0 1.7255 70.925 -460.63)" d="M492.7 136.8c-19.295 82.668-201.64-47.542-257.78 17.778-20.21 23.513 74.04 79.415 7.62 92.7-36.627 7.325-137.85-19.47-154.92 31.746-12.97 38.908 87.345 46.93 63.493 78.73-30.72 40.96-166.5-1.987-147.3 93.97 15.185 75.924 103.5 38.086 132.06 95.24 19.43 38.86-68.977 78.153-31.746 107.94 70.854 56.683 132.73-56.067 194.3-62.223 56.306-5.63 298.85 124.36 314.92 27.937 6.52-39.116-60.68-80.4-43.175-106.67 35.325-52.988 139.68-3.86 129.53-95.24-11.796-106.16-198.68-29.567-212.07-96.51-4.19-20.956 17.648-39.6 34.286-46.985 54.25-24.11 163.64-23.192 165.08-85.08.75-32.228-52.867-39.217-83.8-48.254-35.386-10.336-102.1-40.98-110.48-5.08z" fill="url(#J)"/><path d="M1118.304 797.45c-123.54-32.86-243.882-89.864-374.95-89.864-76.186 0-610.775 48.914-591.864 86.765 24.354 48.707 151.18-7.51 176.622 43.383 34.325 68.65-181.195 46.65-154.936 99.16 23.077 46.155 210.7 10.07 257.203 21.69 68.977 17.244-70.766 40.585-24.8 68.173 37.454 22.473 175.673 1.664 249.75 22.052s84.013 81.972 125.197 95.7c29.16 9.72 124.657 14.732 151.837 9.296 182.006-36.4-265.123-127.05-83.666-127.05 55.326 0 149.25 35.38 201.418 9.296 52.117-26.06.82-89.295 3.1-89.864 67.243-16.81 163.495 25.53 210.718-21.69 54.88-54.88-226.213-20.16-226.213-65.074 0-11.648 241-19.3 80.567-61.975z" fill="#6b8e23"/><path d="M740.246 749.325c-133.756 7.18-267.28 19.56-399.816 39.003 31.613 21.57 43.355 69.627 20.314 101.572-5.087 5.043-11.7 12.865-5.776 19.904 8.785 10.74 24.236 3.58 35.773 5.186 29.523-.136 63.523 1.238 86.632 22.273 14.83 15.774 16.704 40.427 8.61 59.887 74.355.728 152.657-6.03 221.295 28.036 18.83 10.74 34.92 28.4 57.744 30.44-12.208-32.596 16.84-72.51 51.886-69.003 74.086-9.063 146.56 28.083 220.71 13.265-16.136-18.6-31.813-45.013-22.02-70.31 4.228-6.87 11.224-15.44 5.827-23.83-7.922-8.11-18.47-14.89-21.343-26.71-7.174-19.78-1.504-45.294 17.16-56.665 4.09-10.294-7.747-16.413-16.173-17.235-84.632-27.192-170.71-57.254-260.827-55.813z" opacity=".2"/><path transform="matrix(1.7255 0 0 1.7255 70.925 -460.63)" d="M607 729.1c-71.596-19.044-141.34-52.08-217.3-52.08-44.153 0-353.97 28.348-343 50.284 14.114 28.228 87.616-4.353 102.36 25.142 19.893 39.786-105 27.036-89.792 57.467 13.374 26.75 122.1 5.835 149.06 12.57 39.975 9.994-41.012 23.52-14.367 39.51 21.706 13.024 101.8.964 144.74 12.78s48.69 47.506 72.557 55.462c16.9 5.634 72.244 8.538 87.996 5.388 105.48-21.095-153.65-73.63-48.488-73.63 32.064 0 86.496 20.504 116.73 5.388 30.204-15.102.476-51.75 1.796-52.08 38.97-9.742 94.752 14.795 122.12-12.57 31.806-31.806-131.1-11.683-131.1-37.713 0-6.75 139.67-11.186 46.692-35.917z" fill="url(#A)"/><path d="M375.58 425.713c-39.18-5.354-64.232-16.553-78.87-35.26-2.633-3.364-2.807-13.67-.38-22.41 5.836-21.013 41.588-51.1 88.64-74.593 75.894-37.895 165.686-63.246 269.49-76.086 29.803-3.686 100.912-4.27 122.012-1 40.44 6.265 72.336 21.296 75.64 35.645 2.182 9.48.913 21.57-3.13 29.813-11.664 23.79-56.493 55.515-112.6 79.682-66.113 28.478-149.045 50.72-227.455 61.002-32.46 4.256-111.73 6.167-133.34 3.214z" fill="orange"/><path transform="matrix(1.7255 0 0 1.7255 1919.3 -594.42)" d="M-894.65 591.2c-22.707-3.103-37.225-9.593-45.71-20.435-1.526-1.95-1.627-7.923-.22-12.988 3.382-12.178 24.102-29.615 51.37-43.23 43.984-21.962 96.022-36.654 156.18-44.095 17.272-2.136 58.483-2.474 70.71-.58 23.436 3.63 41.922 12.342 43.836 20.658 1.264 5.495.53 12.5-1.813 17.278-6.76 13.788-32.74 32.173-65.256 46.18-38.315 16.504-86.378 29.394-131.82 35.353-18.812 2.467-64.753 3.574-77.277 1.862z" fill="url(#D)"/><path d="M286.615 383.593c-22.425-25.743-24.27-62.385-4.794-95.146 8.527-14.343 28.664-35.92 46.57-49.903 57.72-45.07 140.44-76.117 242.415-90.982 30.177-4.4 110.6-4.454 138.088-.095 39.09 6.202 74.64 17.524 97.408 31.023 15.795 9.365 34.683 28.18 40.768 40.6 5.365 10.96 7.94 35.366 5.858 37.447-.643.643-1.3-7.127-4.14-10.572-33.062-40.11-161.795-39.14-308.485-3.79-96.692 23.3-186.734 59.766-224.367 97.398-16.244 16.244-22.28 28.402-20.872 42.04.532 5.16.302 9.38-.513 9.38s-4.385-3.333-7.934-7.408z" fill="red"/><g transform="matrix(1.7255 0 0 1.7255 1919.3 -594.42)"><path d="M-946.2 566.8c-12.996-14.92-14.066-36.155-2.778-55.14 4.942-8.312 16.612-20.818 26.99-28.92 33.45-26.12 81.39-44.113 140.5-52.728 17.49-2.55 64.103-2.58 80.028-.055 22.655 3.594 43.257 10.156 56.452 17.98 9.154 5.427 20.1 16.33 23.627 23.535 3.11 6.35 4.6 20.496 3.395 21.702-.373.373-.754-4.13-2.4-6.127-19.16-23.246-93.767-22.683-178.78-2.197-56.037 13.504-108.22 34.637-130.03 56.446-9.414 9.414-12.912 16.46-12.096 24.364.31 3 .175 5.436-.297 5.436s-2.54-1.932-4.598-4.293z" fill="url(#E)"/><path d="M-864.05 575c-16.662-2.277-27.315-7.04-33.54-14.995-1.12-1.43-1.194-5.813-.16-9.53 2.482-8.936 17.686-21.73 37.695-31.722 32.275-16.115 70.46-26.896 114.6-32.356 12.674-1.568 42.914-1.816 51.886-.426 17.197 2.664 30.76 9.057 32.166 15.158.928 4.032.388 9.172-1.33 12.678-4.96 10.117-24.024 23.608-47.883 33.885-28.115 12.1-63.383 21.568-96.73 25.94-13.804 1.8-47.514 2.622-56.704 1.367z" fill="#806600" filter="url(#L)"/></g><path d="M660.062 300.298s-28.63-10.15-43.576-12.2c-13.814-1.898-27.915-.866-41.833 0-14.026.873-28.345 1.286-41.833 5.23-12.97 3.792-29.068 6.212-36.603 17.43-17.197 25.603-2.905 61.625-5.23 92.38-3.254 43.063-6.182 86.218-12.2 128.983-5.273 37.462-13.013 74.555-20.917 111.554-6.24 29.216-16.123 57.663-20.917 87.152-4.304 26.48-11.998 53.827-6.972 80.18 4.38 22.972 17.7 43.778 31.375 62.75 11.05 15.33 23.472 31.088 40.1 40.1 19.838 10.746 43.676 13.558 66.235 13.944 23.59.404 48.117-2.717 69.72-12.2 20.11-8.83 37.75-23.627 52.29-40.1 12.93-14.64 29.632-43.576 29.632-50.547s10.458-50.547 10.458-50.547-5.23-43.576-5.23-52.29-9.284-42.998-13.944-64.492c-8.693-40.094-18.777-79.9-26.145-120.27-5.696-31.2-10.783-62.565-13.944-94.123-3.305-32.998-2.38-66.31-5.23-99.353-1.257-14.575-5.23-43.576-5.23-43.576z" fill="#f4a460"/><g transform="matrix(1.7082 .24379 -.30353 1.6986 70.925 -460.63)"><ellipse cx="586.52" cy="507.04" rx="91.19" ry="71.993" fill="red"/><ellipse cx="586.52" cy="507.04" rx="91.19" ry="71.993" fill="url(#F)"/></g><path d="M905.36 544.405c-29.97.025-56.654 12.727-66.577 31.69-10.464 14.465-8.602 36.838-14.684 54.357-9.56 27.536-18.874 55.176-30.584 82.153-10.258 23.632-22.418 46.695-34.69 69.677-9.693 18.15-22.16 35.318-30.745 53.834-7.7 16.627-18.256 33.37-18.522 51.147-.233 15.496 6.994 30.767 14.802 44.894 6.31 11.416 13.64 23.287 25.405 31.328 14.043 9.6 32.55 14.576 50.435 17.807 18.7 3.38 38.718 4.592 57.44 1.287 17.428-3.076 33.858-10.356 48.088-19.125 12.655-7.798 30.624-24.38 31.753-28.91s16.5-31.447 16.5-31.447 2.893-28.988 4.304-34.648-.425-29.15-.654-43.724c-.426-27.185-2.005-54.374-1.335-81.557.518-21.015 1.55-42.052 4.142-62.963 2.71-21.866 8.84-43.38 11.92-65.212 1.334-9.454 7.6-20.238 3.127-28.52-4.022-23.938-34.196-42.04-70.123-42.07z" fill="#deb887"/><g transform="matrix(1.7255 0 0 1.7255 70.925 -460.63)"><use xlink:href="#M" fill="url(#B)"/><use xlink:href="#N" fill="url(#C)"/></g><g transform="matrix(1.7255 0 0 1.7255 70.925 -456.514)" fill="maroon"><ellipse cx="483.81" cy="530.13" rx="15.238" ry="6.032"/><ellipse cx="539.37" cy="534.9" rx="7.302" ry="5.714"/><ellipse cx="438.73" cy="536.17" rx="6.984" ry="5.714"/><ellipse cx="509.53" cy="523.15" rx="4.127" ry="4.762"/><ellipse cx="569.53" cy="565.69" rx="4.445" ry="4.127"/><ellipse cx="550.16" cy="555.85" rx="4.127" ry="5.714"/><ellipse cx="415.56" cy="566.01" rx="5.397" ry="5.714"/><ellipse cx="439.05" cy="559.02" rx="6.032" ry="5.714"/></g><g transform="matrix(1.7255 0 0 1.7255 70.925 -460.63)" class="C"><ellipse cx="483.81" cy="530.13" rx="15.238" ry="6.032"/><ellipse cx="539.37" cy="534.9" rx="7.302" ry="5.714"/><ellipse cx="438.73" cy="536.17" rx="6.984" ry="5.714"/><ellipse cx="509.53" cy="523.15" rx="4.127" ry="4.762"/><ellipse cx="569.53" cy="565.69" rx="4.445" ry="4.127"/><ellipse cx="550.16" cy="555.85" rx="4.127" ry="5.714"/><ellipse cx="415.56" cy="566.01" rx="5.397" ry="5.714"/><ellipse cx="439.05" cy="559.02" rx="6.032" ry="5.714"/></g><g transform="matrix(1.7255 0 0 1.7255 70.925 -458.572)" fill="maroon"><ellipse cx="273.34" cy="371.4" rx="11.111" ry="4.127"/><ellipse cx="337.78" cy="362.2" rx="8.254" ry="3.81"/><ellipse cx="302.23" cy="363.47" rx="5.714" ry="4.445"/><ellipse cx="205.72" cy="386.32" rx="8.254" ry="5.079"/><ellipse cx="172.7" cy="401.88" rx="6.349" ry="4.762"/><ellipse cx="241.59" cy="375.53" rx="6.032" ry="4.445"/><ellipse cx="151.75" cy="417.75" rx="3.81" ry="4.127"/><ellipse cx="387.31" cy="370.13" rx="7.619" ry="2.857"/><ellipse cx="418.42" cy="379.97" rx="6.349" ry="3.81"/><ellipse cx="358.73" cy="376.8" rx="6.349" ry="4.445"/></g><g transform="matrix(1.7255 0 0 1.7255 70.925 -460.63)"><g class="C"><ellipse cx="273.34" cy="371.4" rx="11.111" ry="4.127"/><ellipse cx="337.78" cy="362.2" rx="8.254" ry="3.81"/><ellipse cx="302.23" cy="363.47" rx="5.714" ry="4.445"/><ellipse cx="205.72" cy="386.32" rx="8.254" ry="5.079"/><ellipse cx="172.7" cy="401.88" rx="6.349" ry="4.762"/><ellipse cx="241.59" cy="375.53" rx="6.032" ry="4.445"/><ellipse cx="151.75" cy="417.75" rx="3.81" ry="4.127"/><ellipse cx="387.31" cy="370.13" rx="7.619" ry="2.857"/></g><g fill="#dcdcdc"><ellipse cx="418.42" cy="379.97" rx="6.349" ry="3.81"/><ellipse cx="358.73" cy="376.8" rx="6.349" ry="4.445"/></g><use xlink:href="#N" fill="url(#G)"/><use xlink:href="#M" fill="url(#H)"/></g><g fill="none" class="D"><path d="M404.06 886.28C352.84 720.38 211.46 589.7 196.5 425" stroke="#55542f"/><path d="M383.56 893.97c-45.316-119.62-167.67-192.5-233.2-276.76" stroke="#554d2f"/><path d="M424.56 881.15c-40.816-113.02-51.73-243.32-41.002-361.33" stroke="#394e2f"/></g><g transform="matrix(.89258 -.4509 .4509 .89258 61.937 163.3)"><g class="E"><use xlink:href="#O"/><use xlink:href="#P"/><use xlink:href="#Q"/><use xlink:href="#R"/><use xlink:href="#S"/></g><g transform="matrix(.98065 -.19575 .19575 .98065 0 0)"><ellipse cx="-217.32" cy="401.07" rx="40.635" ry="20.953" fill="gold"/><ellipse cx="-217.32" cy="401.07" rx="40.635" ry="20.953" class="F"/></g><g class="C"><use xlink:href="#T" class="B"/><use xlink:href="#U" class="B"/><use xlink:href="#V" class="B"/><use xlink:href="#W" class="B"/><use xlink:href="#X" class="B"/></g></g><g transform="matrix(.99551 .094649 -.094649 .99551 363.96 -29.062)"><g class="G"><use xlink:href="#O"/><use xlink:href="#P"/><use xlink:href="#Q"/><use xlink:href="#R"/><use xlink:href="#S"/></g><g transform="matrix(.98065 -.19575 .19575 .98065 0 0)"><ellipse cx="-217.32" cy="401.07" rx="40.635" ry="20.953" class="H"/><ellipse cx="-217.32" cy="401.07" rx="40.635" ry="20.953" class="I"/></g><g class="C"><use xlink:href="#T" class="B"/><use xlink:href="#U" class="B"/><use xlink:href="#V" class="B"/><use xlink:href="#W" class="B"/><use xlink:href="#X" class="B"/></g></g><g transform="matrix(.78879 .17151 -.17151 .78879 583.38 182.59)"><g class="E"><use xlink:href="#O"/><use xlink:href="#P"/><use xlink:href="#Q"/><use xlink:href="#R"/><use xlink:href="#S"/></g><g transform="matrix(.98065 -.19575 .19575 .98065 0 0)"><ellipse cx="-217.32" cy="401.07" rx="40.635" ry="20.953" fill="gold"/><ellipse cx="-217.32" cy="401.07" rx="40.635" ry="20.953" class="F"/></g><g class="C"><use xlink:href="#T" class="B"/><use xlink:href="#U" class="B"/><use xlink:href="#V" class="B"/><use xlink:href="#W" class="B"/><use xlink:href="#X" class="B"/></g></g><g fill="none"><path d="M1149.8 917.03c18.14-112.6 60.374-214.36 151.2-287" stroke="#43552f" class="D"/><path d="M1120.3 920.17c48.458-152.7 56.65-334.1 77.055-487.9" stroke="#55582f" stroke-width="6.168"/><path d="M1093.4 914.47c44.327-215.64 27.803-444.4-43.564-640.65" stroke="#554e2f" class="D"/></g><g transform="matrix(.99641 -.084634 .084634 .99641 1142.6 -184)"><g class="E"><use xlink:href="#O"/><use xlink:href="#P"/><use xlink:href="#Q"/><use xlink:href="#R"/><use xlink:href="#S"/></g><g transform="matrix(.98065 -.19575 .19575 .98065 0 0)"><ellipse cx="-217.32" cy="401.07" rx="40.635" ry="20.953" fill="gold"/><ellipse cx="-217.32" cy="401.07" rx="40.635" ry="20.953" class="F"/></g><g class="C"><use xlink:href="#T" class="B"/><use xlink:href="#U" class="B"/><use xlink:href="#V" class="B"/><use xlink:href="#W" class="B"/><use xlink:href="#X" class="B"/></g></g><g transform="matrix(.69743 .23512 -.23512 .69743 1394 143.59)"><g class="G"><use xlink:href="#O"/><use xlink:href="#P"/><use xlink:href="#Q"/><use xlink:href="#R"/><use xlink:href="#S"/></g><g transform="matrix(.98065 -.19575 .19575 .98065 0 0)"><ellipse cx="-217.32" cy="401.07" rx="40.635" ry="20.953" class="H"/><ellipse cx="-217.32" cy="401.07" rx="40.635" ry="20.953" class="I"/></g><g class="C"><use xlink:href="#T" class="B"/><use xlink:href="#U" class="B"/><use xlink:href="#V" class="B"/><use xlink:href="#W" class="B"/><use xlink:href="#X" class="B"/></g></g><g transform="matrix(.36076 .64152 -.64152 .36076 1668.3 539.45)"><g class="E"><use xlink:href="#O"/><use xlink:href="#P"/><use xlink:href="#Q"/><use xlink:href="#R"/><use xlink:href="#S"/></g><g transform="matrix(.98065 -.19575 .19575 .98065 0 0)"><ellipse cx="-217.32" cy="401.07" rx="40.635" ry="20.953" fill="gold"/><ellipse cx="-217.32" cy="401.07" rx="40.635" ry="20.953" class="F"/></g><g class="C"><use xlink:href="#T" class="B"/><use xlink:href="#U" class="B"/><use xlink:href="#V" class="B"/><use xlink:href="#W" class="B"/><use xlink:href="#X" class="B"/></g></g><path d="M611.63 965.72c-181.33-140.12 81.023-324.85 10.25-466.4" fill="none" stroke="#737f1b" class="D"/><g transform="matrix(.79328 .075422 -.075422 .79328 783.6 139.3)"><g class="E"><use xlink:href="#O"/><use xlink:href="#P"/><use xlink:href="#Q"/><use xlink:href="#R"/><use xlink:href="#S"/></g><g transform="matrix(.98065 -.19575 .19575 .98065 0 0)"><ellipse cx="-217.32" cy="401.07" rx="40.635" ry="20.953" fill="gold"/><ellipse cx="-217.32" cy="401.07" rx="40.635" ry="20.953" class="F"/></g><g class="C"><use xlink:href="#T" class="B"/><use xlink:href="#U" class="B"/><use xlink:href="#V" class="B"/><use xlink:href="#W" class="B"/><use xlink:href="#X" class="B"/></g></g><path d="M586 965.72c-133.34-29.436-72.364-160.4-107.63-248.57" fill="none" stroke="#38510d" class="D"/><g transform="matrix(.60254 -.15728 .15728 .60254 484.91 417.06)"><g class="G"><use xlink:href="#O"/><use xlink:href="#P"/><use xlink:href="#Q"/><use xlink:href="#R"/><use xlink:href="#S"/></g><g transform="matrix(.98065 -.19575 .19575 .98065 0 0)"><ellipse cx="-217.32" cy="401.07" rx="40.635" ry="20.953" class="H"/><ellipse cx="-217.32" cy="401.07" rx="40.635" ry="20.953" class="I"/></g><g class="C"><use xlink:href="#T" class="B"/><use xlink:href="#U" class="B"/><use xlink:href="#V" class="B"/><use xlink:href="#W" class="B"/><use xlink:href="#X" class="B"/></g></g></g></svg>